<svg width="339" height="93" viewBox="0 0 339 93" fill="none" xmlns="http://www.w3.org/2000/svg">
<path d="M276.395 79.7889C277.173 86.9429 281.6 90.7399 289.387 90.7399H326.914C333.811 90.7399 338.819 86.2549 338.819 80.0779C338.819 73.9089 333.812 69.4319 326.914 69.4319H307.526C305.16 69.4319 302.504 68.5509 300.989 67.2989C299.474 66.0459 299.361 62.4849 299.361 59.2389V13.1339C299.361 6.42987 294.448 1.56787 287.677 1.56787C280.834 1.56787 276.234 6.21587 276.234 13.1339V42.2319C279.337 47.5029 281.072 53.8989 281.072 61.1549C281.073 68.2789 279.395 74.5709 276.395 79.7889Z" fill="#5966EC"/>
<path d="M217.98 73.8101C222.333 85.3161 232.856 92.4451 246.84 92.4451C265.425 92.4451 277.911 79.8721 277.911 61.1571C277.911 42.4321 265.425 29.8511 246.84 29.8511C232.856 29.8511 222.333 36.9841 217.98 48.4981C219.266 52.3351 219.983 56.5671 219.983 61.1561C219.983 65.7431 219.266 69.9731 217.98 73.8101ZM246.84 47.9581C254.44 47.9581 257.901 54.7971 257.901 61.1561C257.901 67.5061 254.44 74.3381 246.84 74.3381C239.204 74.3381 235.788 67.7151 235.788 61.1561C235.788 54.5881 239.204 47.9581 246.84 47.9581Z" fill="#FFD66C"/>
<path d="M157.697 71.5171L160.347 73.6711C163.833 76.5121 165.344 80.9681 164.757 85.1801C170.088 89.8041 177.272 92.4451 185.746 92.4451C204.332 92.4451 216.821 79.8721 216.821 61.1571C216.821 42.4321 204.333 29.8511 185.746 29.8511C176.131 29.8511 168.169 33.2451 162.706 39.0911C163.058 41.7021 163.29 44.3831 163.29 47.1791C163.291 56.1601 161.409 64.3431 157.697 71.5171ZM185.746 47.9581C193.348 47.9581 196.809 54.7971 196.809 61.1561C196.809 67.5061 193.348 74.3381 185.746 74.3381C178.111 74.3381 174.695 67.7151 174.695 61.1561C174.695 54.5881 178.111 47.9581 185.746 47.9581Z" fill="#FFD66C"/>
<path d="M78.5861 65.6042C78.5861 68.3632 78.1491 70.9732 77.3941 73.4452C85.0511 85.3532 98.3891 92.4452 115.168 92.4452C124.722 92.4452 133.217 90.1922 140.419 85.7532L141.375 85.1642L147.758 90.3492C149.323 91.6192 151.258 92.3142 153.206 92.3142L153.643 92.3062C154.156 92.2772 154.666 92.1982 155.155 92.0832C157.072 91.6292 158.787 90.4962 159.998 88.8832C162.915 84.9712 162.178 79.2462 158.351 76.1252L153.665 72.3122L154.305 71.1552C158.171 64.1782 160.131 56.1122 160.131 47.1792C160.131 20.0912 142.063 1.88916 115.171 1.88916C89.0591 1.88916 71.3241 19.0942 70.3301 44.9102C75.1331 49.3782 78.5861 55.8682 78.5861 65.6042ZM115.164 21.3432C130.094 21.3432 136.894 34.7392 136.894 47.1822C136.894 49.7892 136.579 52.4252 135.958 55.0192L135.371 57.4612L130.222 53.2732C126.718 50.4032 120.643 51.1522 117.956 54.7312C115.036 58.6512 115.775 64.3762 119.608 67.4842L124.215 71.2232L121.355 72.0842C119.321 72.6972 117.294 72.9932 115.164 72.9932C100.173 72.9932 93.4621 60.0292 93.4621 47.1812C93.4621 34.3232 100.173 21.3432 115.164 21.3432Z" fill="#5966EC"/>
<path d="M75.4246 65.6041C75.4246 47.9291 63.5606 42.3201 51.9536 39.1701L36.1036 34.8171C28.6176 32.7831 25.6996 30.4111 25.6996 26.3631C25.6996 22.0191 29.1566 19.9061 36.2666 19.9061C43.5926 19.9061 47.9756 22.3151 52.3046 25.9311C58.0106 30.7821 64.9856 31.5851 68.9646 27.8371C70.9466 26.0171 72.0176 23.6991 72.0736 21.1211C72.1426 17.7491 70.5046 14.2201 67.4616 11.1881C60.6176 4.21606 49.9516 0.539062 36.6056 0.539062C16.4156 0.539062 3.36958 10.8541 3.36958 26.8151C3.36958 39.5191 11.8296 48.8311 27.1896 53.0391L45.9676 58.1331C50.9036 59.5551 52.6446 61.5051 52.6446 65.6041C52.6446 70.4551 46.3236 73.0741 40.3766 73.0741C32.7786 73.0741 25.7846 70.1501 21.1876 65.0551C17.9606 61.4891 14.3616 59.6081 10.7816 59.6081C8.54157 59.6081 6.39958 60.3481 4.41458 61.8151C2.21758 63.4201 0.885576 65.5871 0.554576 68.0871C0.130576 71.2981 1.40258 74.9391 4.13458 78.3311C11.1176 87.1731 24.2346 92.4441 39.2326 92.4441C60.5416 92.4441 75.4246 81.4071 75.4246 65.6041Z" fill="#5966EC"/>
</svg>
