<svg width="339" height="93" viewBox="0 0 339 93" fill="none" xmlns="http://www.w3.org/2000/svg">
<path d="M276.138 79.7889C276.916 86.9429 281.344 90.7399 289.13 90.7399H326.659C333.555 90.7399 338.562 86.2549 338.562 80.0779C338.562 73.9089 333.555 69.4319 326.659 69.4319H307.268C304.901 69.4319 302.249 68.5509 300.734 67.2989C299.219 66.0459 299.104 62.4849 299.104 59.2389V13.1339C299.104 6.42987 294.19 1.56787 287.419 1.56787C280.575 1.56787 275.978 6.21587 275.978 13.1339V42.2319C279.082 47.5029 280.817 53.8989 280.817 61.1549C280.817 68.2789 279.141 74.5709 276.138 79.7889Z" fill="#FFBB56"/>
<path d="M217.726 73.8101C222.074 85.3161 232.6 92.4451 246.584 92.4451C265.168 92.4451 277.654 79.8721 277.654 61.1571C277.654 42.4321 265.168 29.8511 246.584 29.8511C232.6 29.8511 222.073 36.9841 217.726 48.4981C219.01 52.3351 219.726 56.5671 219.726 61.1561C219.726 65.7431 219.01 69.9731 217.726 73.8101ZM246.584 47.9581C254.185 47.9581 257.645 54.7971 257.645 61.1561C257.645 67.5061 254.185 74.3381 246.584 74.3381C238.949 74.3381 235.531 67.7151 235.531 61.1561C235.531 54.5881 238.949 47.9581 246.584 47.9581Z" fill="#5966EC"/>
<path d="M157.438 71.5171L160.09 73.6711C163.572 76.5121 165.088 80.9681 164.499 85.1801C169.832 89.8041 177.014 92.4451 185.489 92.4451C204.077 92.4451 216.56 79.8721 216.56 61.1571C216.56 42.4321 204.077 29.8511 185.489 29.8511C175.873 29.8511 167.913 33.2451 162.448 39.0911C162.799 41.7021 163.034 44.3831 163.034 47.1791C163.035 56.1601 161.151 64.3431 157.438 71.5171ZM185.49 47.9581C193.091 47.9581 196.551 54.7971 196.551 61.1561C196.551 67.5061 193.091 74.3381 185.49 74.3381C177.854 74.3381 174.437 67.7151 174.437 61.1561C174.438 54.5881 177.854 47.9581 185.49 47.9581Z" fill="#5966EC"/>
<path d="M78.3312 65.6042C78.3312 68.3632 77.8943 70.9732 77.1373 73.4452C84.7973 85.3532 98.1312 92.4452 114.912 92.4452C124.465 92.4452 132.96 90.1922 140.163 85.7532L141.118 85.1642L147.502 90.3492C149.067 91.6192 151.002 92.3142 152.949 92.3142L153.387 92.3062C153.897 92.2772 154.408 92.1982 154.898 92.0832C156.813 91.6292 158.53 90.4962 159.741 88.8832C162.66 84.9712 161.92 79.2462 158.094 76.1252L153.407 72.3122L154.046 71.1552C157.912 64.1782 159.873 56.1122 159.873 47.1792C159.873 20.0912 141.807 1.88916 114.913 1.88916C88.8013 1.88916 71.0673 19.0942 70.0723 44.9102C74.8773 49.3782 78.3312 55.8682 78.3312 65.6042ZM114.908 21.3432C129.839 21.3432 136.637 34.7392 136.637 47.1822C136.637 49.7892 136.321 52.4252 135.703 55.0192L135.113 57.4612L129.962 53.2732C126.462 50.4032 120.383 51.1522 117.698 54.7312C114.779 58.6512 115.516 64.3762 119.349 67.4842L123.956 71.2232L121.1 72.0842C119.065 72.6972 117.039 72.9932 114.907 72.9932C99.9172 72.9932 93.2062 60.0292 93.2062 47.1812C93.2072 34.3232 99.9183 21.3432 114.908 21.3432Z" fill="#FFBB56"/>
<path d="M75.1697 65.6041C75.1697 47.9291 63.3018 42.3201 51.6968 39.1701L35.8458 34.8171C28.3598 32.7831 25.4388 30.4111 25.4388 26.3631C25.4388 22.0191 28.8988 19.9061 36.0068 19.9061C43.3358 19.9061 47.7167 22.3151 52.0447 25.9311C57.7487 30.7821 64.7248 31.5851 68.7028 27.8371C70.6868 26.0171 71.7587 23.6991 71.8157 21.1211C71.8807 17.7491 70.2417 14.2201 67.2037 11.1881C60.3597 4.21606 49.6938 0.539062 36.3438 0.539062C16.1578 0.539062 3.11176 10.8541 3.11176 26.8151C3.11176 39.5191 11.5698 48.8311 26.9298 53.0391L45.7078 58.1331C50.6418 59.5551 52.3878 61.5051 52.3878 65.6041C52.3878 70.4551 46.0628 73.0741 40.1168 73.0741C32.5218 73.0741 25.5268 70.1501 20.9268 65.0551C17.7018 61.4891 14.1038 59.6081 10.5258 59.6081C8.28576 59.6081 6.14376 60.3481 4.15876 61.8151C1.96076 63.4201 0.625758 65.5871 0.296758 68.0871C-0.127242 71.2981 1.14477 74.9391 3.87977 78.3311C10.8588 87.1731 23.9758 92.4441 38.9728 92.4441C60.2878 92.4441 75.1697 81.4071 75.1697 65.6041Z" fill="#FFBB56"/>
</svg>
